<svg width="73" height="10" viewBox="0 0 73 10" fill="none" xmlns="http://www.w3.org/2000/svg">
<path d="M0.104 9V2.592H1.016V5.34H0.872C0.872 4.708 0.956 4.176 1.124 3.744C1.3 3.304 1.564 2.972 1.916 2.748C2.268 2.516 2.712 2.4 3.248 2.4H3.296C4.104 2.4 4.7 2.652 5.084 3.156C5.476 3.66 5.672 4.388 5.672 5.34V9H4.52V5.1C4.52 4.604 4.38 4.208 4.1 3.912C3.82 3.608 3.436 3.456 2.948 3.456C2.444 3.456 2.036 3.612 1.724 3.924C1.412 4.236 1.256 4.652 1.256 5.172V9H0.104ZM7.77978 9V2.592H8.69178V5.232H8.64378C8.64378 4.296 8.84778 3.612 9.25578 3.18C9.67178 2.74 10.2918 2.52 11.1158 2.52H11.3318V3.552H10.9238C10.2838 3.552 9.79178 3.724 9.44778 4.068C9.10378 4.404 8.93178 4.892 8.93178 5.532V9H7.77978ZM17.1177 9L14.7057 6.012H13.6497L16.5897 2.592H17.8017L15.1377 5.676L15.2217 5.064L18.4497 9H17.1177ZM12.7017 9V0.24H13.8537V9H12.7017ZM23.4097 9V7.08H23.2177V4.86C23.2177 4.42 23.1017 4.088 22.8697 3.864C22.6457 3.64 22.3137 3.528 21.8737 3.528C21.6257 3.528 21.3697 3.532 21.1057 3.54C20.8417 3.548 20.5897 3.556 20.3497 3.564C20.1097 3.572 19.9017 3.584 19.7257 3.6V2.592C19.9017 2.576 20.0857 2.564 20.2777 2.556C20.4777 2.54 20.6817 2.532 20.8897 2.532C21.0977 2.524 21.2977 2.52 21.4897 2.52C22.1457 2.52 22.6817 2.6 23.0977 2.76C23.5137 2.912 23.8217 3.164 24.0217 3.516C24.2217 3.868 24.3217 4.344 24.3217 4.944V9H23.4097ZM21.3097 9.168C20.8297 9.168 20.4137 9.088 20.0617 8.928C19.7177 8.76 19.4497 8.52 19.2577 8.208C19.0737 7.896 18.9817 7.52 18.9817 7.08C18.9817 6.624 19.0817 6.244 19.2817 5.94C19.4897 5.636 19.7897 5.408 20.1817 5.256C20.5737 5.096 21.0457 5.016 21.5977 5.016H23.3377V5.88H21.5497C21.0857 5.88 20.7297 5.992 20.4817 6.216C20.2337 6.44 20.1097 6.728 20.1097 7.08C20.1097 7.432 20.2337 7.716 20.4817 7.932C20.7297 8.148 21.0857 8.256 21.5497 8.256C21.8217 8.256 22.0817 8.208 22.3297 8.112C22.5777 8.008 22.7817 7.84 22.9417 7.608C23.1097 7.368 23.2017 7.04 23.2177 6.624L23.5297 7.08C23.4897 7.536 23.3777 7.92 23.1937 8.232C23.0177 8.536 22.7697 8.768 22.4497 8.928C22.1377 9.088 21.7577 9.168 21.3097 9.168ZM26.436 9V0.24H27.588V5.472H27.3C27.3 4.84 27.38 4.296 27.54 3.84C27.708 3.376 27.964 3.02 28.308 2.772C28.652 2.524 29.092 2.4 29.628 2.4H29.676C30.444 2.4 31.024 2.656 31.416 3.168C31.808 3.672 32.004 4.396 32.004 5.34V9H30.852V5.1C30.852 4.58 30.704 4.176 30.408 3.888C30.12 3.6 29.744 3.456 29.28 3.456C28.768 3.456 28.356 3.628 28.044 3.972C27.74 4.308 27.588 4.752 27.588 5.304V9H26.436ZM34.2798 9V2.196C34.2798 1.484 34.4678 0.96 34.8438 0.624C35.2198 0.288 35.7718 0.12 36.4998 0.12H37.2198V1.08H36.3078C36.0118 1.08 35.7838 1.164 35.6238 1.332C35.4638 1.492 35.3838 1.716 35.3838 2.004V9H34.2798ZM33.3918 3.456V2.592H37.0998V3.456H33.3918ZM38.6838 9V2.592H39.8358V9H38.6838ZM37.7478 3.504V2.592H39.8358V3.504H37.7478ZM39.0078 1.56C38.7518 1.56 38.5598 1.492 38.4318 1.356C38.3118 1.22 38.2518 1.048 38.2518 0.84C38.2518 0.632 38.3118 0.46 38.4318 0.323999C38.5598 0.188 38.7518 0.12 39.0078 0.12C39.2638 0.12 39.4518 0.188 39.5718 0.323999C39.6998 0.46 39.7638 0.632 39.7638 0.84C39.7638 1.048 39.6998 1.22 39.5718 1.356C39.4518 1.492 39.2638 1.56 39.0078 1.56ZM42.0688 9V2.592H42.9808V5.232H42.9328C42.9328 4.296 43.1368 3.612 43.5448 3.18C43.9608 2.74 44.5808 2.52 45.4048 2.52H45.6208V3.552H45.2128C44.5728 3.552 44.0808 3.724 43.7368 4.068C43.3928 4.404 43.2208 4.892 43.2208 5.532V9H42.0688ZM46.9907 9V0.24H48.1427V5.472H47.8547C47.8547 4.84 47.9347 4.296 48.0947 3.84C48.2627 3.376 48.5187 3.02 48.8627 2.772C49.2067 2.524 49.6467 2.4 50.1827 2.4H50.2307C50.9987 2.4 51.5787 2.656 51.9707 3.168C52.3627 3.672 52.5587 4.396 52.5587 5.34V9H51.4067V5.1C51.4067 4.58 51.2587 4.176 50.9627 3.888C50.6747 3.6 50.2987 3.456 49.8347 3.456C49.3227 3.456 48.9107 3.628 48.5987 3.972C48.2947 4.308 48.1427 4.752 48.1427 5.304V9H46.9907ZM54.6665 9V2.592H55.5785V5.34H55.4345C55.4345 4.716 55.5145 4.188 55.6745 3.756C55.8425 3.316 56.0905 2.98 56.4185 2.748C56.7465 2.516 57.1625 2.4 57.6665 2.4H57.7145C58.2185 2.4 58.6345 2.516 58.9625 2.748C59.2985 2.98 59.5465 3.316 59.7065 3.756C59.8665 4.188 59.9465 4.716 59.9465 5.34H59.6105C59.6105 4.716 59.6945 4.188 59.8625 3.756C60.0305 3.316 60.2785 2.98 60.6065 2.748C60.9425 2.516 61.3625 2.4 61.8665 2.4H61.9145C62.4185 2.4 62.8385 2.516 63.1745 2.748C63.5105 2.98 63.7585 3.316 63.9185 3.756C64.0865 4.188 64.1705 4.716 64.1705 5.34V9H63.0185V5.088C63.0185 4.568 62.8905 4.168 62.6345 3.888C62.3785 3.6 62.0225 3.456 61.5665 3.456C61.0945 3.456 60.7145 3.608 60.4265 3.912C60.1385 4.208 59.9945 4.624 59.9945 5.16V9H58.8425V5.088C58.8425 4.568 58.7145 4.168 58.4585 3.888C58.2025 3.6 57.8465 3.456 57.3905 3.456C56.9185 3.456 56.5385 3.608 56.2505 3.912C55.9625 4.208 55.8185 4.624 55.8185 5.16V9H54.6665ZM68.9558 9.216C68.4998 9.216 68.0798 9.132 67.6958 8.964C67.3118 8.796 66.9758 8.56 66.6878 8.256C66.4078 7.952 66.1878 7.6 66.0278 7.2C65.8758 6.8 65.7998 6.368 65.7998 5.904V5.688C65.7998 5.232 65.8758 4.804 66.0278 4.404C66.1798 4.004 66.3918 3.652 66.6638 3.348C66.9438 3.044 67.2718 2.808 67.6478 2.64C68.0318 2.464 68.4558 2.376 68.9198 2.376C69.4078 2.376 69.8518 2.48 70.2518 2.688C70.6518 2.888 70.9798 3.204 71.2358 3.636C71.4918 4.068 71.6358 4.628 71.6678 5.316L71.1878 4.548V0.24H72.3398V9H71.4278V6.156H71.7638C71.7318 6.884 71.5798 7.476 71.3078 7.932C71.0358 8.38 70.6918 8.708 70.2758 8.916C69.8678 9.116 69.4278 9.216 68.9558 9.216ZM69.1118 8.208C69.5038 8.208 69.8598 8.12 70.1798 7.944C70.4998 7.768 70.7558 7.516 70.9478 7.188C71.1398 6.852 71.2358 6.46 71.2358 6.012V5.46C71.2358 5.02 71.1358 4.648 70.9358 4.344C70.7438 4.032 70.4838 3.796 70.1558 3.636C69.8358 3.468 69.4838 3.384 69.0998 3.384C68.6758 3.384 68.2998 3.484 67.9718 3.684C67.6518 3.884 67.3998 4.164 67.2158 4.524C67.0398 4.884 66.9518 5.308 66.9518 5.796C66.9518 6.284 67.0438 6.712 67.2278 7.08C67.4118 7.44 67.6678 7.72 67.9958 7.92C68.3238 8.112 68.6958 8.208 69.1118 8.208Z" fill="#22C55E" />
</svg>
